HIERARCHY
ROOT Hips
{
	OFFSET 0.000000 0.000000 0.000000
	CHANNELS 6 Xposition Yposition Zposition Zrotation Yrotation Xrotation 
	JOINT LHipJoint
	{
		OFFSET 0.000000 0.000000 0.000000
		CHANNELS 3 Zrotation Yrotation Xrotation
		JOINT LeftUpLeg
		{
			OFFSET 1.363060 -1.794630 0.839290
			CHANNELS 3 Zrotation Yrotation Xrotation
			JOINT LeftLeg
			{
				OFFSET 2.448110 -6.726130 0.000000
				CHANNELS 3 Zrotation Yrotation Xrotation
				JOINT LeftFoot
				{
					OFFSET 2.562200 -7.039590 0.000000
					CHANNELS 3 Zrotation Yrotation Xrotation
					JOINT LeftToeBase
					{
						OFFSET 0.157640 -0.433110 2.322550
						CHANNELS 3 Zrotation Yrotation Xrotation
						End Site
						{
							OFFSET 0.000000 0.000000 0.000000
						}
					}
				}
			}
		}
	}
	JOINT RHipJoint
	{
		OFFSET 0.000000 0.000000 0.000000
		CHANNELS 3 Zrotation Yrotation Xrotation
		JOINT RightUpLeg
		{
			OFFSET -1.305520 -1.794630 0.839290
			CHANNELS 3 Zrotation Yrotation Xrotation
			JOINT RightLeg
			{
				OFFSET -2.542530 -6.985550 0.000000
				CHANNELS 3 Zrotation Yrotation Xrotation
				JOINT RightFoot
				{
					OFFSET -2.568260 -7.056230 0.000000
					CHANNELS 3 Zrotation Yrotation Xrotation
					JOINT RightToeBase
					{
						OFFSET -0.164730 -0.452590 2.363150
						CHANNELS 3 Zrotation Yrotation Xrotation
						End Site
						{
							OFFSET 0.000000 0.000000 0.000000
						}
					}
				}
			}
		}
	}
	JOINT LowerBack
	{
		OFFSET 0.000000 0.000000 0.000000
		CHANNELS 3 Zrotation Yrotation Xrotation
		JOINT Spine
		{
			OFFSET 0.028270 2.035590 -0.193380
			CHANNELS 3 Zrotation Yrotation Xrotation
			JOINT Spine1
			{
				OFFSET 0.056720 2.048850 -0.042750
				CHANNELS 3 Zrotation Yrotation Xrotation
				JOINT Neck
				{
					OFFSET 0.000000 0.000000 0.000000
					CHANNELS 3 Zrotation Yrotation Xrotation
					JOINT Neck1
					{
						OFFSET -0.054170 1.746240 0.172020
						CHANNELS 3 Zrotation Yrotation Xrotation
						JOINT Head
						{
							OFFSET 0.104070 1.761360 -0.123970
							CHANNELS 3 Zrotation Yrotation Xrotation
							End Site
							{
								OFFSET 0.000000 0.000000 0.000000
							}
						}
					}
				}
				JOINT LeftShoulder
				{
					OFFSET 0.000000 0.000000 0.000000
					CHANNELS 3 Zrotation Yrotation Xrotation
					JOINT LeftArm
					{
						OFFSET 3.362410 1.200890 -0.311210
						CHANNELS 3 Zrotation Yrotation Xrotation
						JOINT LeftForeArm
						{
							OFFSET 4.983000 -0.000000 -0.000000
							CHANNELS 3 Zrotation Yrotation Xrotation
							JOINT LeftHand
							{
								OFFSET 3.483560 -0.000000 -0.000000
								CHANNELS 3 Zrotation Yrotation Xrotation
								JOINT LeftFingerBase
								{
									OFFSET 0.000000 0.000000 0.000000
									CHANNELS 3 Zrotation Yrotation Xrotation
									JOINT LeftHandIndex1
									{
										OFFSET 0.715260 -0.000000 -0.000000
										CHANNELS 3 Zrotation Yrotation Xrotation
										End Site
										{
											OFFSET 0.000000 0.000000 0.000000
										}
									}
								}
								JOINT LThumb
								{
									OFFSET 0.000000 0.000000 0.000000
									CHANNELS 3 Zrotation Yrotation Xrotation
									End Site
									{
										OFFSET 0.000000 0.000000 0.000000
									}
								}
							}
						}
					}
				}
				JOINT RightShoulder
				{
					OFFSET 0.000000 0.000000 0.000000
					CHANNELS 3 Zrotation Yrotation Xrotation
					JOINT RightArm
					{
						OFFSET -3.136600 1.374050 -0.404650
						CHANNELS 3 Zrotation Yrotation Xrotation
						JOINT RightForeArm
						{
							OFFSET -5.241900 -0.000000 -0.000000
							CHANNELS 3 Zrotation Yrotation Xrotation
							JOINT RightHand
							{
								OFFSET -3.444170 -0.000000 -0.000000
								CHANNELS 3 Zrotation Yrotation Xrotation
								JOINT RightFingerBase
								{
									OFFSET 0.000000 0.000000 0.000000
									CHANNELS 3 Zrotation Yrotation Xrotation
									JOINT RightHandIndex1
									{
										OFFSET -0.622530 -0.000000 -0.000000
										CHANNELS 3 Zrotation Yrotation Xrotation
										End Site
										{
											OFFSET 0.000000 0.000000 0.000000
										}
									}
								}
								JOINT RThumb
								{
									OFFSET 0.000000 0.000000 0.000000
									CHANNELS 3 Zrotation Yrotation Xrotation
									End Site
									{
										OFFSET 0.000000 0.000000 0.000000
									}
								}
							}
						}
					}
				}
			}
		}
	}
}
MOTION
Frames: 5
Frame Time: 0.008333
1.987314 16.819728 2.872618 -15.832177 -73.001897 28.286853 -10.459931 -1.158332 2.157680 -5.827244 -16.506453 -27.357561 -0.455584 1.146018 37.996078 3.048672 14.739083 -18.260337 -2.722000 0.000001 -27.639900 9.510223 0.333229 -1.890160 4.201158 -0.595362 -32.541924 -1.069589 -3.618227 56.562519 -4.477989 -26.984585 15.884606 -11.369300 -0.000000 -70.108200 -4.191433 -1.470020 2.263448 -1.744433 -1.290604 -2.887663 -6.770194 -1.379529 -1.743369 8.467429 -6.637588 -7.447446 -2.203399 -0.164930 -0.048237 0.000000 0.000000 0.000000 0.704160 0.393218 2.783639 -43.140526 9.354171 35.905936 -1.911031 -64.127898 0.012927 -8.749198 -9.593214 0.742349 0.000390 0.078200 0.000000 0.000000 0.000000 0.000000 0.000000 0.000000 0.000000 8.742922 -1.825529 1.931872 62.373526 -15.107489 35.924636 1.488246 52.783088 0.005281 -4.142325 6.481004 -0.242724 0.093916 -0.098297 0.000000 0.000000 0.000000 0.000000 0.000000 0.000000 0.000000 
2.006993 16.814629 2.887522 -16.305039 -72.582849 28.366505 -10.504017 -1.181179 2.146492 -5.641691 -16.679841 -27.041151 -0.438317 1.174478 38.243199 3.033191 14.703360 -18.354962 -2.748500 0.000000 -27.600700 9.522477 0.396316 -1.967080 4.408642 -0.695568 -33.551291 -1.151395 -3.739779 58.616758 -4.424017 -26.785634 17.038826 -11.646800 -0.000001 -69.329599 -4.118189 -1.478834 2.375741 -1.733575 -1.303942 -2.870785 -6.791276 -1.392313 -1.782110 8.406295 -6.589803 -7.373854 -2.191482 -0.164937 -0.028380 0.000000 0.000000 0.000000 0.706356 0.130354 2.807945 -42.805542 8.870105 36.223540 -1.889304 -64.282172 0.013022 -8.775105 -9.604806 0.745845 0.002073 0.080531 0.000000 0.000000 0.000000 0.000000 0.000000 0.000000 0.000000 8.609197 -1.782765 1.918525 62.582549 -15.457626 36.031043 1.468832 52.902807 0.005067 -4.119292 6.449546 -0.240039 0.091835 -0.097443 0.000000 0.000000 0.000000 0.000000 0.000000 0.000000 0.000000 
2.026356 16.810133 2.901564 -16.770076 -72.174205 28.433445 -10.549504 -1.197300 2.136007 -5.461250 -16.794226 -26.728575 -0.425494 1.201055 38.465980 3.008427 14.614788 -18.435867 -2.763000 -0.000000 -27.613400 9.539185 0.454347 -2.052481 4.624051 -0.877276 -34.619532 -1.235044 -3.872405 60.692891 -4.354329 -26.398904 17.795156 -11.671500 -0.000000 -68.346900 -4.047452 -1.486958 2.484607 -1.722731 -1.316389 -2.852402 -6.809234 -1.403866 -1.811770 8.350280 -6.556438 -7.311255 -2.177214 -0.164591 -0.011601 0.000000 0.000000 0.000000 0.719024 -0.091736 2.834643 -42.474561 8.303485 36.564702 -1.869019 -64.397831 0.013204 -8.781473 -9.628696 0.748544 0.003386 0.083157 0.000000 0.000000 0.000000 0.000000 0.000000 0.000000 0.000000 8.474781 -1.754735 1.901504 62.770249 -15.783765 36.160382 1.447274 53.045181 0.004843 -4.099081 6.419716 -0.237654 0.089731 -0.096659 0.000000 0.000000 0.000000 0.000000 0.000000 0.000000 0.000000 
2.045555 16.806494 2.914982 -17.256043 -71.777048 28.512837 -10.598245 -1.207509 2.122974 -5.277245 -16.835573 -26.415314 -0.416790 1.225476 38.660384 2.973119 14.467050 -18.501444 -2.763800 -0.000000 -27.694300 9.558246 0.507355 -2.146124 4.858166 -1.129936 -35.738356 -1.324151 -4.015429 62.775109 -4.276152 -25.889836 18.157342 -11.485700 -0.000000 -67.584100 -3.970985 -1.493683 2.592959 -1.711028 -1.327762 -2.836327 -6.827119 -1.414759 -1.848617 8.299949 -6.522940 -7.243962 -2.163347 -0.164367 0.006667 0.000000 0.000000 0.000000 0.733724 -0.352276 2.859532 -42.156903 7.791447 36.857221 -1.848519 -64.517688 0.013337 -8.798193 -9.645596 0.751541 0.004952 0.085678 0.000000 0.000000 0.000000 0.000000 0.000000 0.000000 0.000000 8.346831 -1.723498 1.888017 62.932932 -16.106607 36.299434 1.425758 53.212000 0.004629 -4.075249 6.392446 -0.235167 0.087649 -0.096017 0.000000 0.000000 0.000000 0.000000 0.000000 0.000000 0.000000 
2.064837 16.803858 2.927904 -17.772180 -71.392934 28.610777 -10.650555 -1.212331 2.106200 -5.087146 -16.801295 -26.097684 -0.411874 1.247450 38.822019 2.927451 14.261297 -18.550209 -2.750600 0.000001 -27.843001 9.578807 0.556286 -2.249469 5.114426 -1.453423 -36.907163 -1.421579 -4.169322 64.860609 -4.192284 -25.295107 18.120287 -11.116899 -0.000000 -67.049000 -3.886512 -1.499460 2.703678 -1.698001 -1.338609 -2.822085 -6.844902 -1.425529 -1.892866 8.255029 -6.486607 -7.171025 -2.150240 -0.164302 0.026648 0.000000 0.000000 0.000000 0.750361 -0.649917 2.882377 -41.857396 7.338822 37.094200 -1.828104 -64.640483 0.013423 -8.826751 -9.655109 0.755135 0.006785 0.088090 0.000000 0.000000 0.000000 0.000000 0.000000 0.000000 0.000000 8.226032 -1.686622 1.878000 63.068207 -16.420544 36.450643 1.404459 53.397995 0.004419 -4.047700 6.368846 -0.232680 0.085585 -0.095505 0.000000 0.000000 0.000000 0.000000 0.000000 0.000000 0.000000 
